# xmcd CD database file
#
# Track frame offsets:
#	182
#	12092
#	27980
#	41127
#	49390
#	60565
#	75902
#	89200
#	107305
#	124135
#	143332
#
# Disc length: 2151 seconds
#
# Revision: 4
# Processed by: cddbd v1.5.1PL2 Copyright (c) Steve Scherf et al.
# Submitted via: CDex 1.70beta1
#
DISCID=8608650b
DTITLE=Blues Legends - Confessin' The Blues
DYEAR=1900
DGENRE=
TTITLE0=Buddy Guy - Try To Quit You Baby
TTITLE1=John Lee Hooker - Black Man's Blues
TTITLE2=Screamin' Jay Hawkins - This Is All
TTITLE3=Big Joe Williams - Watergate Blues
TTITLE4=Junior Wells - You Sure Look Good To Me
TTITLE5=Peter Green - Post Modern Blues
TTITLE6=Earl Hooker - Hold On
TTITLE7=Matt "Guitar" Murphy - Taking Off
TTITLE8=Brewers Droop and Mark Knopfler - My Old Lady
TTITLE9=Sunnyland Slim - Soft and Mellow Stella
TTITLE10=Tommy Tucker - Hi Heel Sneakers
EXTD=
EXTT0=
EXTT1=
EXTT2=
EXTT3=
EXTT4=
EXTT5=
EXTT6=
EXTT7=
EXTT8=
EXTT9=
EXTT10=
PLAYORDER=
